<svg xmlns="http://www.w3.org/2000/svg" width="32" height="32" viewBox="0 0 24 24" fill="none" stroke="#3282B8" stroke-width="2" stroke-linecap="round" stroke-linejoin="round">
  <path d="M10 2v7.31"></path>
  <path d="M14 9.3V1.99"></path>
  <path d="M8.5 14.5c-1.5 0-3 .5-3 2s1.5 2 3 2c1.5 0 3-.5 3-2s-1.5-2-3-2z"></path>
  <path d="M14.5 14.5c1.5 0 3 .5 3 2s-1.5 2-3 2c-1.5 0-3-.5-3-2"></path>
  <path d="M8.5 20.5c-1.5 0-3 .5-3 2s1.5 2 3 2c1.5 0 3-.5 3-2s-1.5-2-3-2z"></path>
  <path d="M14.5 20.5c1.5 0 3 .5 3 2s-1.5 2-3 2c-1.5 0-3-.5-3-2"></path>
</svg>

